<svg xmlns="http://www.w3.org/2000/svg" viewBox="0 0 1024 1024"><circle cx="512" cy="512" r="512"/><path fill="#fff" d="M746 886c9 4 11 17 3 24-5 4-10 5-16 2-6-2-9-7-9-13 0-11 11-18 22-13zm-348 1c4 3 7 10 6 15s-7 11-12 12c-6 0-13-2-16-7-2-3-2-4-2-9 1-6 2-9 8-12 4-3 12-2 16 1z"/><path fill="#fff" d="m657 783 8 4c5 3 5 3 5 0l1-3c2-2 5-2 79-2h76v19l-11 1h-11v114h-7c-6 0-6 0-8-3-2-4-12-15-19-20-12-8-28-15-48-20l-13-4v-25l6-4c19-14 46-28 61-31 5-1 5-1 5-4l-1-3h-44c-39 0-45 0-48 2-7 3-6 1-7 58v51h-23v-51c0-48 0-51-2-54-4-6-4-6-43-6h-36v3c0 3 0 3 8 4 26 5 46 24 48 46 1 13-5 26-15 32-17 10-37-5-31-22 4-9 12-14 21-11l5 2c1-1-2-7-4-11-6-6-19-12-29-12h-3v83h-13l-2-5c-11-17-38-32-71-40l-8-1v-27l11-7a232 232 0 0 1 56-27c4-1 4-2 4-4v-3H454v114h-13l-3-5a114 114 0 0 0-66-38l-12-4-1-12v-13l6-4c18-13 46-28 61-31 5-1 5-1 5-4l-1-3h-99v111h-23v-51l-4-6c-4-6-10-11-13-11-4 0-6 2-16 16-14 20-23 27-33 27-7 0-15-4-20-11-4-5-7-12-7-14 1-2 14-11 15-11l4 5c2 5 6 9 9 9s7-4 11-10c4-5 4-7-1-17s-15-20-25-24l-7-3-1-5v-5h-11l-10-1-1-9v-10h72c168-1 383 0 387 1zM201 668c5 2 7 6 8 11 0 5-1 9-6 13-6 5-14 5-20-2-4-4-5-12-2-17 4-6 13-9 20-5zm165-21 9 15 4 5-9-3a146 146 0 0 0-27-6l3-22h7l8 1zm-2-60 1 4-1 3c-4 0-11 10-11 15s3 10 6 12c7 4 20 2 26-4 3-3 4-3 7-3s4-2 1-4h4c5 3 8 7 8 12 0 4 0 5-3 8-4 3-12 7-21 8-14 2-20 1-20-5l1-4 2-2c1-2 0-2-3-4l-6-4c-2-3-3-9-3-13 1-4 7-11 10-13 2 0 2-1 1-4v-3l1 1zm212-3v7c1 5 1 5 5 4 2-1 2-1 1 3v5l3-1c3 0 3 0 3 4l3 3c8 6 10 19 4 31-7 14-12 22-22 32l-6 7-2 2v-97l6-1c3 0 5 0 4 1z"/><path fill="#fff" d="m542 609-1 26-5-6c-15-20-35-28-56-22-10 4-17 13-17 24 0 16 12 26 27 21 9-2 15-11 13-20-2-6-1-6 2-4 10 5 24 24 37 50l9 17 6-6 7-5v14h-14l-7 5-16 11-9 6-3 2-4 2c-2 1-10 5-13 5l-13 7c-11 6-20 10-32 14-6 2-8 2-18 2-12 0-12 0-25-6l-8-4c-2 0-13-10-14-13-2-3-2-4 0-13l2-11c1-1 2-6 2-13v-11l-3-4c-5-5-4-8 1-6a137 137 0 0 1 44 33c1 0 5-3 9-8l7-7-7-7a175 175 0 0 0-43-29l7-4c9-5 17-12 19-17 3-5 3-13 2-19-1-5-8-13-14-16-5-3-16-6-23-7l-6-3v-3l78-1 78 1zm424-35v9l-12 1h-11v114h-13l-2-5c-11-17-38-32-72-40l-8-2v-13l1-13 9-6c23-15 44-25 59-28 2-1 3-2 3-4v-3H759v20l1 21 9-8c15-12 35-24 41-24l9 8 7 8-2 8c-8 24-7 49 2 68l2 4-7 8c-9 9-9 9-16-5-9-19-12-38-9-59l2-12c-2-2-28 24-42 42l-9 10-6-8-5-6v-75h-48l-3 3c-7 8-11 18-13 32-3 15-2 31 2 45l2 6 3-3c4-5 8-7 15-7 5 0 10 2 13 6 9 11 3 26-12 30-12 3-27-2-34-11-8-10-13-24-14-42-1-33 11-67 28-77 5-2 17-3 163-2h128zm-379 0-1 10h-8l1-7-1-7-1-4c0-2 1-2 4-2h5l1 10z"/><path fill="#fff" d="M422 370a92 92 0 0 0 3 20l3 13 2 3c2 5 4 7 6 9l2 3 1 1c2 0 6-9 7-13l1-6 1-14c0-15 0-16 6-15 4 1 7 4 6 9l1 7c2 4 3 25 1 27l-1 2c0 3-2 9-4 11l-12 10-8 8c1 1 16-1 19-2l5-2c3-1 11-6 14-10l4-5 2-5 2-16 2-16 3-13 1-5 1-4 1-7 1-4 5 1c5 0 8 2 8 3l2 1c4 0 10 3 10 5 1 2 1 2 14 3l13 1c0 1 10 3 16 3 8 0 15-2 19-5s5-3 10-3l6 1 8 2 8 2 10 2 13 3 6 2 2 1 5 1 8 4 5 4 6 4c4 5 5 5 5 12 0 6-1 7-3 9l-2 7-5 18-2 7-2 7-2 6c0 3-1 6-4 9l-2 5c0 3-1 5-7 12-8 8-13 15-13 18l-1 2c-2 0-9 7-11 11-1 2-3 4-5 4l-11 9-9 7c-4 0-5 1-5 4l-4 8c-3 4-4 5-4 9l-1 5-2 3-108 1H359l-1 6-2 11c1 4 1 5 3 5 2 1 2 1-1 1-2 0-3-1-3-2 0-2-29-2-34 1-7 3-6 1-7 57v51l-12 1h-11v-50c0-55 0-55-6-59-3-2-5-2-15-2h-11v114h-12l-3-5c-9-14-30-27-54-35l-17-5-8-1v-26l3-3c15-11 49-29 65-32 2-1 3-2 3-4v-3H124l-4 4c-10 12-15 35-13 58 1 10 4 22 6 24l3-3c6-10 22-9 29 0 10 14-4 31-25 30-28-3-43-39-34-85 4-22 15-40 26-46 5-2 5-2 90-2 91 0 88 0 97 5l3 2 2-4v-2l11-1h27l18-1 4-3 4-2c2-3 2-6 2-7l1-3 1-5c1-6 5-13 7-14s4 0 7 2l8 4 4 1 8 1c10 0 12-1 13-8 1-8-1-12-6-15l-17-6-5-2c-2-3-5-3-9 0-4 4-6 5-8 3l-4-1c-2 0-5-1-7-3-14-9-14-9-22-10-10 0-13 0-19 5l-6 4c-5 0-8-10-6-22 1-11 2-16 6-22l4-7a592 592 0 0 1 52-55l5-7 3-6c2-6-2-8-5-4l-2 2-2-2-3-4-1-3-1-8c1-10 2-10 8-3 2 3 4 5 7 6 3 0 4 1 4 3l2 5c1 2 1 2 3 1l7-6c4-4 6-5 6-3l1 4 3 11 2 8 1 5c0 2 0 3 1 2v-19c0-18 0-19 2-23l4-4c3-1 4 1 5 17zm81-231c8 2 9 2 11 8 3 7 6 10 8 10h2c0 1 6 8 8 8l2 2 5 2 6 3 3 2 3 1 3 1c2 0 3 1 3 3 1 3 2 4 10 4 7 0 9 1 17 5l3 2a180 180 0 0 0 28 16l2 2c0 2 1 2 4 2s4 1 8 5c3 3 4 5 4 7l1 5 2 4 2 3 6 11 5 11c3 2 3 7 1 9s-2 10 0 13c1 1 2 1 3-2l1-3 1 4 1 5c1 2 4 1 4 0 0-3 1-2 4 1l4 2c2 0 3 1 3 3 0 3 1 4 2 4 3 0 4 2 3 3-2 3-1 5 4 5l4 1c1 1-6 9-8 9l-3 2c-4 3-7 3-7 1-1-3-4-2-6 1l-3 3h-10a313 313 0 0 1-55-6l-19-2-17-2a115 115 0 0 1-21-3l-7 1c-1 2-1 2-5 0l-11-2-9-2-11-2-9-2-2-1-2-2-4-6c-3-4-3-5-3-9 1-6 1-6 5-6 5-2 8-5 4-5l-1-2c1-2-3-4-8-4-3 1-4 0-3-2 0-2-2-3-3-1l-12 6-2 1c0 2-8 6-15 8l-9 3c-2 2-3 3-5 1-2-3-3-2-5 0-1 3-4 4-8 1s-8-3-11 2c-4 4-8 4-10-1l-2-7-1-4-2-3c-1-4-3-5-4-2-1 2-1-1-1-9 0-12 0-12 3-14l4-3c2 0 8-9 8-12l7-17 3-9 1-5 1-6c0-3 1-5 4-8l4-7 4-2 2-1 6-1 4 1 2 1 3 2 3 2 4 3 4 2 4-2 1-3 2-8c1-6 1-9 4-13l8-9 6-5c3-3 7-3 11 0s4 3 7-1c3-3 3-3 13-1z"/><path d="M226 617c-12 4-33 16-31 18l6 3a137 137 0 0 1 35 18v-41h-2l-8 2zm684 0c-12 4-33 16-31 18l7 3a166 166 0 0 1 34 18v-41h-2l-8 2zM252 802l6 7c4 4 8 9 10 14l4 8 3-2c7-5 10-6 16-6l11 4 6 3v-28h-56zm167 34c-12 4-31 15-30 17l7 3a153 153 0 0 1 35 18v-41h-2l-10 3zm124 0c-14 5-32 15-30 17l6 3a169 169 0 0 1 34 18l1-20c0-24 1-23-11-18zm226 0c-12 4-31 15-30 17l7 3a153 153 0 0 1 35 18v-41h-2l-10 3z"/></svg>